<?xml version="1.0" encoding="UTF-8" standalone="no"?>
<!-- Created with Inkscape (http://www.inkscape.org/) -->

<svg
   xmlns:dc="http://purl.org/dc/elements/1.1/"
   xmlns:cc="http://creativecommons.org/ns#"
   xmlns:rdf="http://www.w3.org/1999/02/22-rdf-syntax-ns#"
   xmlns:svg="http://www.w3.org/2000/svg"
   xmlns="http://www.w3.org/2000/svg"
   xmlns:sodipodi="http://sodipodi.sourceforge.net/DTD/sodipodi-0.dtd"
   xmlns:inkscape="http://www.inkscape.org/namespaces/inkscape"
   version="1.1"
   id="svg151"
   xml:space="preserve"
   width="50"
   height="50"
   viewBox="0 0 50 50"
   sodipodi:docname="github.svg"
   inkscape:version="0.92.5 (2060ec1f9f, 2020-04-08)"><metadata
     id="metadata157"><rdf:RDF><cc:Work
         rdf:about=""><dc:format>image/svg+xml</dc:format><dc:type
           rdf:resource="http://purl.org/dc/dcmitype/StillImage" /><dc:title></dc:title></cc:Work></rdf:RDF></metadata><defs
     id="defs155"><clipPath
       clipPathUnits="userSpaceOnUse"
       id="clipPath169"><path
         d="M 0,551.986 H 530.973 V 0 H 0 Z"
         id="path167"
         inkscape:connector-curvature="0" /></clipPath></defs><sodipodi:namedview
     pagecolor="#757575"
     bordercolor="#666666"
     borderopacity="1"
     objecttolerance="10"
     gridtolerance="10"
     guidetolerance="10"
     inkscape:pageopacity="0"
     inkscape:pageshadow="2"
     inkscape:window-width="1256"
     inkscape:window-height="772"
     id="namedview153"
     showgrid="false"
     inkscape:zoom="3.6278573"
     inkscape:cx="36.577497"
     inkscape:cy="44.353471"
     inkscape:window-x="24"
     inkscape:window-y="0"
     inkscape:window-maximized="1"
     inkscape:current-layer="g171" /><g
     id="g159"
     inkscape:groupmode="layer"
     inkscape:label="GitHub-Mark"
     transform="matrix(1.3333333,0,0,-1.3333333,0,50.00001)"><g
       id="g163"><g
         id="g165"
         clip-path="url(#clipPath169)"><g
           id="g171"
           transform="matrix(2.3020965,0,0,2.3020965,37.496548,74.074413)"><path
             d="m -8.144,-15.887433 c -4.4975,0 -8.144,-3.6465 -8.144,-8.145 0,-3.5985 2.3335,-6.651 5.57,-7.7285 0.4075,-0.0745 0.556,0.177 0.556,0.393 0,0.193 -0.007,0.7055 -0.011,1.385 -2.2655,-0.492 -2.7435,1.092 -2.7435,1.092 -0.3705,0.9405 -0.9045,1.191 -0.9045,1.191 -0.7395,0.5055 0.056,0.4955 0.056,0.4955 0.8175,-0.058 1.2475,-0.8395 1.2475,-0.8395 0.7265,-1.2445 1.9065,-0.885 2.3705,-0.677 0.074,0.5265 0.284,0.8855 0.517,1.089 -1.8085,0.2055 -3.71,0.9045 -3.71,4.0255 0,0.889 0.3175,1.616 0.8385,2.1855 -0.084,0.206 -0.3635,1.034 0.0795,2.1555 0,0 0.684,0.219 2.24,-0.835 0.6495,0.1805 1.3465,0.271 2.039,0.274 0.6915,-0.003 1.3885,-0.0935 2.039,-0.274 1.555,1.054 2.2375,0.835 2.2375,0.835 0.4445,-1.1215 0.165,-1.9495 0.081,-2.1555 0.522,-0.5695 0.8375,-1.2965 0.8375,-2.1855 0,-3.129 -1.9045,-3.8175 -3.719,-4.019 0.2925,-0.2515 0.553,-0.7485 0.553,-1.5085 0,-1.0885 -0.01,-1.967 -0.01,-2.234 0,-0.218 0.1465,-0.4715 0.56,-0.392 3.234,1.0795 5.5655,4.13 5.5655,7.7275 0,4.4985 -3.647,8.145 -8.1455,8.145"
             style="fill:#dadada;fill-opacity:1;fill-rule:evenodd;stroke:none;stroke-width:0.5"
             id="path173"
             inkscape:connector-curvature="0" /></g></g></g></g></svg>