<?xml version="1.0" encoding="UTF-8" standalone="no"?>
<svg
   xmlns:dc="http://purl.org/dc/elements/1.1/"
   xmlns:cc="http://creativecommons.org/ns#"
   xmlns:rdf="http://www.w3.org/1999/02/22-rdf-syntax-ns#"
   xmlns:svg="http://www.w3.org/2000/svg"
   xmlns="http://www.w3.org/2000/svg"
   xmlns:sodipodi="http://sodipodi.sourceforge.net/DTD/sodipodi-0.dtd"
   xmlns:inkscape="http://www.inkscape.org/namespaces/inkscape"
   viewBox="0 0 50 50"
   version="1.1"
   id="svg126"
   sodipodi:docname="youtube.svg"
   width="50"
   height="50"
   inkscape:version="0.92.5 (2060ec1f9f, 2020-04-08)">
  <metadata
     id="metadata130">
    <rdf:RDF>
      <cc:Work
         rdf:about="">
        <dc:format>image/svg+xml</dc:format>
        <dc:type
           rdf:resource="http://purl.org/dc/dcmitype/StillImage" />
        <dc:title></dc:title>
      </cc:Work>
    </rdf:RDF>
  </metadata>
  <sodipodi:namedview
     pagecolor="#ffffff"
     bordercolor="#666666"
     borderopacity="1"
     objecttolerance="10"
     gridtolerance="10"
     guidetolerance="10"
     inkscape:pageopacity="0"
     inkscape:pageshadow="2"
     inkscape:window-width="1256"
     inkscape:window-height="772"
     id="namedview128"
     showgrid="false"
     inkscape:zoom="3.8894763"
     inkscape:cx="8.3424162"
     inkscape:cy="25.965134"
     inkscape:window-x="24"
     inkscape:window-y="0"
     inkscape:window-maximized="1"
     inkscape:current-layer="svg126" />
  <defs
     id="defs106">
    <style
       id="style98">.cls-1{fill:none;}.cls-2{clip-path:url(#c);}.cls-3{opacity:0.7;}.cls-4{fill:#ca2128;}.cls-5{fill:#ffeed7;}.cls-6{clip-path:url(#d);}</style>
    <clipPath
       id="c"
       transform="translate(0)">
      <rect
         class="cls-1"
         width="199.98"
         height="199.98"
         id="rect100"
         x="0"
         y="0"
         style="fill:none" />
    </clipPath>
    <clipPath
       id="d"
       transform="translate(0)">
      <rect
         class="cls-1"
         x="44.599998"
         y="104.63"
         width="108.15"
         height="57.470001"
         id="rect103"
         style="fill:none" />
    </clipPath>
  </defs>
  <g
     data-name="Layer 2"
     id="g124"
     transform="scale(0.25002501)">
    <g
       class="cls-2"
       clip-path="url(#c)"
       id="g112">
      <g
         class="cls-3"
         id="g110"
         style="opacity:0.7">
        <path
           class="cls-4"
           d="M 200,169.59 A 30.39,30.39 0 0 1 169.59,200 H 30.39 A 30.39,30.39 0 0 1 0,169.59 V 30.39 A 30.39,30.39 0 0 1 30.39,0 h 139.2 A 30.39,30.39 0 0 1 200,30.39 Z"
           id="path108"
           inkscape:connector-curvature="0"
           style="fill:#ca2128" />
      </g>
    </g>
    <path
       class="cls-5"
       d="M 137.08,82 V 39.22 h -7.76 V 72 c -1.73,2.43 -3.35,3.63 -4.91,3.63 -1,0 -1.65,-0.62 -1.82,-1.82 a 17.74,17.74 0 0 1 -0.1,-3 V 39.22 h -7.74 v 33.86 a 21.52,21.52 0 0 0 0.69,6.37 c 0.77,2.17 2.49,3.19 5,3.19 2.83,0 5.77,-1.72 8.87,-5.27 V 82 Z M 100.61,69.64 c 0,4 -1.2,5.95 -3.7,5.95 -2.5,0 -3.71,-2 -3.71,-5.95 v -18 c 0,-4 1.2,-5.94 3.71,-5.94 2.51,0 3.7,2 3.7,5.94 z m 7.77,-1.46 v -15 c 0,-4.58 -0.79,-7.92 -2.41,-10.09 a 11.51,11.51 0 0 0 -18.09,0 c -1.65,2.17 -2.43,5.51 -2.43,10.09 v 15 c 0,4.55 0.78,7.93 2.43,10.08 a 11.52,11.52 0 0 0 18.09,0 c 1.63,-2.15 2.41,-5.52 2.41,-10.08 m -23,-43.61 h -8.7 L 70.8,47.14 64.69,24.57 h -9.06 c 1.81,5.32 3.71,10.68 5.52,16 a 141,141 0 0 1 5.26,18.19 V 82 H 75 V 58.77 Z"
       id="path114"
       inkscape:connector-curvature="0"
       style="fill:#ffeed7" />
    <path
       class="cls-5"
       d="m 162.22,134 c 0,9.91 0,20.42 -2.23,30 a 16.06,16.06 0 0 1 -13.73,12.49 c -15.76,1.76 -31.71,1.77 -47.59,1.76 -15.88,-0.01 -31.83,0 -47.59,-1.76 A 16.05,16.05 0 0 1 37.35,164 c -2.21,-9.62 -2.21,-20.13 -2.21,-30 0,-9.87 0,-20.41 2.24,-30 A 16,16 0 0 1 51.11,91.5 c 15.76,-1.77 31.71,-1.77 47.59,-1.77 15.88,0 31.83,0 47.59,1.77 A 16,16 0 0 1 160,104 c 2.21,9.63 2.2,20.13 2.2,30"
       id="path116"
       inkscape:connector-curvature="0"
       style="fill:#ffeed7" />
    <g
       class="cls-6"
       clip-path="url(#d)"
       id="g122">
      <g
         class="cls-3"
         id="g120"
         style="opacity:0.7">
        <path
           class="cls-4"
           d="m 152.75,148 v -1.12 h -7.84 a 49.32,49.32 0 0 1 -0.16,5.2 c -0.44,2.05 -1.55,3.08 -3.43,3.08 -2.63,0 -3.92,-2 -3.92,-5.88 v -7.51 h 15.36 V 133 c 0,-4.53 -0.77,-7.85 -2.38,-10 a 10.65,10.65 0 0 0 -9.06,-4.35 10.9,10.9 0 0 0 -9.2,4.35 c -1.64,2.14 -2.37,5.46 -2.37,10 v 14.8 c 0,4.5 0.83,7.85 2.46,10 a 11,11 0 0 0 9.3,4.34 10.64,10.64 0 0 0 9.29,-4.59 11.06,11.06 0 0 0 1.79,-4.6 c 0.07,-0.77 0.17,-2.48 0.17,-5 m -7.68,-12.63 h -7.67 v -3.92 q 0,-5.88 3.85,-5.89 c 2.54,0 3.82,2 3.82,5.89 z m -21.32,13.48 v -16.88 a 32.94,32.94 0 0 0 -0.77,-8.52 c -1,-3.17 -3.08,-4.78 -6.14,-4.78 -2.82,0 -5.45,1.55 -7.93,4.6 v -18.59 h -7.68 v 56.89 h 7.68 v -4.1 c 2.56,3.17 5.2,4.69 7.93,4.69 3.06,0 5.12,-1.61 6.14,-4.76 a 34.11,34.11 0 0 0 0.77,-8.54 m -7.68,0.6 c 0,3.83 -1.13,5.71 -3.34,5.71 a 5.48,5.48 0 0 1 -3.83,-1.88 V 127.4 a 5.52,5.52 0 0 1 3.83,-1.87 c 2.21,0 3.34,2 3.34,5.78 z M 86.9,161.52 v -4.62 c -3,3.5 -6,5.21 -8.77,5.21 -2.48,0 -4.19,-1 -4.95,-3.15 a 21.46,21.46 0 0 1 -0.68,-6.3 v -33.53 h 7.68 v 31.21 a 24,24 0 0 0 0.07,3 c 0.19,1.19 0.77,1.79 1.8,1.79 1.54,0 3.16,-1.19 4.86,-3.59 v -32.4 h 7.69 v 42.39 z M 71.38,112.65 v -8 H 44.6 v 8 h 9 v 48.87 h 8.54 v -48.87 z"
           id="path118"
           inkscape:connector-curvature="0"
           style="fill:#ca2128" />
      </g>
    </g>
  </g>
</svg>
