<?xml version="1.0" encoding="UTF-8" standalone="no"?>
<!-- Created with Inkscape (http://www.inkscape.org/) -->

<svg
   xmlns:dc="http://purl.org/dc/elements/1.1/"
   xmlns:cc="http://creativecommons.org/ns#"
   xmlns:rdf="http://www.w3.org/1999/02/22-rdf-syntax-ns#"
   xmlns:svg="http://www.w3.org/2000/svg"
   xmlns="http://www.w3.org/2000/svg"
   xmlns:sodipodi="http://sodipodi.sourceforge.net/DTD/sodipodi-0.dtd"
   xmlns:inkscape="http://www.inkscape.org/namespaces/inkscape"
   width="300"
   height="300"
   viewBox="0 0 79.374998 79.375002"
   version="1.1"
   id="svg8"
   inkscape:version="0.92.5 (2060ec1f9f, 2020-04-08)"
   sodipodi:docname="java.svg">
  <defs
     id="defs2">
    <clipPath
       id="clipPath1713"
       clipPathUnits="userSpaceOnUse">
      <path
         inkscape:connector-curvature="0"
         id="path1711"
         d="M 0,720 H 1280 V 0 H 0 Z" />
    </clipPath>
    <clipPath
       id="clipPath3761"
       clipPathUnits="userSpaceOnUse">
      <path
         inkscape:connector-curvature="0"
         id="path3759"
         d="M 0,720 H 1280 V 0 H 0 Z" />
    </clipPath>
    <clipPath
       id="clipPath4370"
       clipPathUnits="userSpaceOnUse">
      <path
         inkscape:connector-curvature="0"
         id="path4368"
         d="M 0,720 H 1280 V 0 H 0 Z" />
    </clipPath>
  </defs>
  <sodipodi:namedview
     id="base"
     pagecolor="#ffffff"
     bordercolor="#666666"
     borderopacity="1.0"
     inkscape:pageopacity="0.0"
     inkscape:pageshadow="2"
     inkscape:zoom="1.4"
     inkscape:cx="155.67449"
     inkscape:cy="127.26921"
     inkscape:document-units="mm"
     inkscape:current-layer="g3757"
     showgrid="false"
     units="px"
     inkscape:window-width="1280"
     inkscape:window-height="772"
     inkscape:window-x="0"
     inkscape:window-y="0"
     inkscape:window-maximized="1" />
  <metadata
     id="metadata5">
    <rdf:RDF>
      <cc:Work
         rdf:about="">
        <dc:format>image/svg+xml</dc:format>
        <dc:type
           rdf:resource="http://purl.org/dc/dcmitype/StillImage" />
        <dc:title></dc:title>
      </cc:Work>
    </rdf:RDF>
  </metadata>
  <g
     inkscape:label="Capa 1"
     inkscape:groupmode="layer"
     id="layer1"
     transform="translate(0,-217.62498)">
    <g
       transform="matrix(0.35277777,0,0,-0.35277777,-183.18269,288.08917)"
       inkscape:label="logos"
       id="g1705">
      <g
         id="g1707">
        <g
           clip-path="url(#clipPath1713)"
           id="g1709">
          <g
             transform="translate(-7.048204,-35.565503)"
             inkscape:label="logos"
             id="g3753">
            <g
               id="g3755">
              <g
                 clip-path="url(#clipPath3761)"
                 id="g3757">
                <g
                   id="g4916"
                   transform="matrix(1.8307287,0,0,1.8307287,-958.50018,-104.3884)">
                  <g
                     id="g4362"
                     inkscape:label="logos"
                     transform="translate(-87.18681,-5.8526222)">
                    <g
                       id="g4364">
                      <g
                         id="g4366"
                         clip-path="url(#clipPath4370)">
                        <g
                           id="g4492"
                           transform="translate(959.57017,126.58728)">
                          <path
                             d="m 0,0 c -2.837,2.611 -5.675,5.222 -8.176,8.169 -1.513,1.784 -2.888,3.662 -3.847,5.815 -1.534,3.439 -1.256,6.66 1.078,9.68 1.676,2.17 3.66,4.023 5.776,5.743 2.538,2.064 5.109,4.088 7.643,6.157 0.826,0.676 1.594,1.424 2.36,2.17 4.675,4.551 7.034,9.872 5.366,16.587 0.5,-0.167 0.643,-0.54 0.825,-0.835 2.137,-3.444 2.268,-7.088 0.981,-10.83 C 10.486,38.242 7.544,34.813 4.241,31.647 2.72,30.188 1.063,28.886 -0.562,27.548 -2.598,25.875 -4.459,24.036 -5.906,21.81 -8.183,18.308 -8.413,14.687 -6.595,10.923 -5.632,8.929 -4.371,7.125 -3.105,5.323 -2.119,3.917 -1.119,2.52 -0.317,0.998 -0.16,0.699 0.145,0.427 -0.014,0.023 Z"
                             style="fill:#f3272b;fill-opacity:1;fill-rule:nonzero;stroke:none"
                             id="path4494"
                             inkscape:connector-curvature="0" />
                        </g>
                        <g
                           id="g4496"
                           transform="translate(990.44807,95.451578)">
                          <path
                             d="M 0,0 C 0.84,0.138 1.244,-0.468 1.575,-1.036 1.922,-1.631 1.696,-2.235 1.25,-2.73 0.449,-3.617 -0.592,-4.148 -1.662,-4.62 c -3.281,-1.449 -6.749,-2.259 -10.259,-2.887 -11.127,-1.994 -22.338,-2.292 -33.596,-1.621 -5.953,0.354 -11.871,1.008 -17.751,2.003 -1.055,0.179 -2.094,0.433 -3.057,0.922 -1.56,0.795 -1.727,1.836 -0.495,3.056 0.675,0.668 1.478,1.159 2.317,1.585 2.977,1.513 6.13,2.439 9.455,2.747 1.027,0.094 2.061,0.088 3.23,-0.443 -1.115,-0.173 -2.045,-0.279 -2.958,-0.468 -1.912,-0.395 -3.762,-0.983 -5.453,-1.978 -0.492,-0.289 -1.107,-0.605 -1.019,-1.291 0.078,-0.621 0.702,-0.803 1.209,-1.003 2.859,-1.125 5.867,-1.62 8.896,-1.93 13.76,-1.408 27.493,-1.028 41.192,0.784 2.566,0.34 5.118,0.812 7.569,1.694 0.827,0.297 1.628,0.653 2.265,1.281 0.742,0.733 0.762,1.343 0.103,2.197 z"
                             style="fill:#0e70b8;fill-opacity:1;fill-rule:nonzero;stroke:none"
                             id="path4498"
                             inkscape:connector-curvature="0" />
                        </g>
                        <g
                           id="g4500"
                           transform="translate(981.65417,160.61368)">
                          <path
                             d="M 0,0 C -0.252,-0.449 -0.65,-0.555 -0.973,-0.748 -4.224,-2.7 -7.436,-4.709 -10.4,-7.085 c -1.571,-1.26 -3.047,-2.615 -4.236,-4.259 -1.71,-2.364 -1.878,-4.819 -0.489,-7.387 0.851,-1.573 1.926,-2.995 2.962,-4.443 2.304,-3.216 2.277,-6.214 -0.098,-9.385 -1.319,-1.76 -3,-3.123 -4.823,-4.325 -0.219,-0.144 -0.437,-0.294 -0.718,-0.144 0.331,0.432 0.685,0.85 0.99,1.3 1.955,2.879 1.827,5.733 -0.402,8.395 -1.168,1.396 -2.262,2.834 -3.094,4.46 -2.294,4.483 -1.82,8.713 1.42,12.553 1.799,2.132 4.017,3.751 6.403,5.157 3.704,2.183 7.674,3.743 11.775,4.993 0.208,0.064 0.425,0.103 0.71,0.17"
                             style="fill:#f3272b;fill-opacity:1;fill-rule:nonzero;stroke:none"
                             id="path4502"
                             inkscape:connector-curvature="0" />
                        </g>
                        <g
                           id="g4504"
                           transform="translate(979.75667,122.08388)">
                          <path
                             d="m 0,0 c -2.679,-2.251 -5.929,-2.726 -9.157,-3.229 -10.192,-1.588 -20.428,-1.873 -30.697,-0.951 -2.417,0.217 -4.833,0.534 -7.137,1.353 -0.772,0.275 -1.793,0.486 -1.86,1.475 -0.067,1 0.931,1.32 1.664,1.682 4.465,2.204 9.183,3.486 14.16,3.787 0.29,0.018 0.582,0.017 0.874,0.018 0.091,0 0.183,-0.023 0.528,-0.069 -1.395,-0.402 -2.564,-0.727 -3.727,-1.078 -1.704,-0.515 -3.397,-1.064 -4.978,-1.903 -0.257,-0.136 -0.509,-0.288 -0.738,-0.464 -0.894,-0.689 -0.842,-1.267 0.206,-1.68 1.833,-0.723 3.786,-0.861 5.722,-0.961 8.363,-0.43 16.699,0.005 25.018,0.874 2.962,0.31 5.91,0.719 8.851,1.187 C -0.863,0.106 -0.448,0.137 0,0"
                             style="fill:#0e70b8;fill-opacity:1;fill-rule:nonzero;stroke:none"
                             id="path4506"
                             inkscape:connector-curvature="0" />
                        </g>
                        <g
                           id="g4508"
                           transform="translate(975.49307,99.120978)">
                          <path
                             d="m 0,0 c -2.716,-1.193 -5.344,-1.976 -8.046,-2.505 -6.69,-1.309 -13.373,-1.431 -20.023,0.269 -1.574,0.402 -3.102,0.946 -4.43,1.919 -1.681,1.232 -1.642,2.554 0.097,3.681 0.872,0.566 1.83,0.93 2.916,1.241 -0.091,-0.573 -0.749,-0.889 -0.444,-1.449 0.327,-0.599 0.933,-0.785 1.531,-0.927 2.754,-0.654 5.574,-0.78 8.383,-0.93 4.589,-0.246 9.112,0.37 13.603,1.232 0.652,0.126 1.178,0.044 1.742,-0.294 C -3.255,1.389 -1.738,0.736 0,0"
                             style="fill:#0e70b8;fill-opacity:1;fill-rule:nonzero;stroke:none"
                             id="path4510"
                             inkscape:connector-curvature="0" />
                        </g>
                        <g
                           id="g4512"
                           transform="translate(943.74497,114.68258)">
                          <path
                             d="m 0,0 c 0.051,-0.292 -0.161,-0.378 -0.271,-0.517 -1.058,-1.333 -0.808,-2.199 0.835,-2.732 1.714,-0.555 3.513,-0.558 5.283,-0.717 7.639,-0.688 15.203,-0.047 22.709,1.417 0.602,0.117 1.034,0.044 1.495,-0.365 0.944,-0.835 2.066,-1.406 3.407,-2 C 31.26,-5.633 29.212,-6.081 27.156,-6.472 19.603,-7.91 12,-8.396 4.342,-7.488 c -2.447,0.29 -4.877,0.713 -7.135,1.761 -0.959,0.445 -2.067,0.89 -2.109,2.167 -0.04,1.229 1.015,1.725 1.89,2.259 C -2.077,-0.731 -1.064,-0.316 0,0"
                             style="fill:#0e70b8;fill-opacity:1;fill-rule:nonzero;stroke:none"
                             id="path4514"
                             inkscape:connector-curvature="0" />
                        </g>
                        <g
                           id="g4516"
                           transform="translate(936.50477,83.947678)">
                          <path
                             d="m 0,0 c 7.08,-0.854 14.155,-1.194 21.253,-1.126 9.966,0.095 19.856,0.878 29.547,3.378 1.221,0.315 2.424,0.709 3.613,1.127 1.99,0.7 3.917,1.535 5.497,3.051 C 59.903,5.474 59.497,4.663 58.575,3.782 57.385,2.645 55.955,1.889 54.447,1.277 50.483,-0.33 46.314,-1.095 42.103,-1.634 31.783,-2.954 21.434,-3.018 11.075,-2.2 7.816,-1.943 4.567,-1.537 1.431,-0.534 0.946,-0.379 0.477,-0.179 0,0"
                             style="fill:#0e70b8;fill-opacity:1;fill-rule:nonzero;stroke:none"
                             id="path4518"
                             inkscape:connector-curvature="0" />
                        </g>
                        <g
                           id="g4520"
                           transform="translate(980.90027,107.63418)">
                          <path
                             d="m 0,0 c 0.197,0.508 0.612,0.589 0.939,0.771 2.758,1.525 5.396,3.215 7.594,5.511 1.016,1.06 1.89,2.224 2.443,3.593 0.86,2.132 0.807,4.206 -0.709,6.034 -1.597,1.924 -3.699,2.647 -6.166,2.245 -0.6,-0.097 -1.185,-0.28 -1.913,-0.458 0.301,0.597 0.728,0.875 1.19,1.049 2.927,1.098 5.834,1.161 8.629,-0.386 C 15.458,16.448 16.603,12.62 14.826,9.1 13.867,7.201 12.38,5.776 10.68,4.55 8.007,2.622 2.587,0.305 0,0"
                             style="fill:#0e70b8;fill-opacity:1;fill-rule:nonzero;stroke:none"
                             id="path4522"
                             inkscape:connector-curvature="0" />
                        </g>
                        <g
                           id="g4524"
                           transform="translate(959.55647,126.61028)">
                          <path
                             d="m 0,0 c 0.016,-0.014 0.03,-0.028 0.045,-0.042 -0.01,0.007 -0.02,0.015 -0.03,0.021 C 0.014,-0.023 0,0 0,0"
                             style="fill:#f3272b;fill-opacity:1;fill-rule:nonzero;stroke:none"
                             id="path4526"
                             inkscape:connector-curvature="0" />
                        </g>
                        <g
                           id="g4528"
                           transform="translate(990.43447,95.479878)">
                          <path
                             d="M 0,0 C 0.022,-0.008 0.044,-0.017 0.066,-0.025 0.064,0.054 0.049,0.053 0.016,-0.029 0.014,-0.028 0,0 0,0"
                             style="fill:#0e70b8;fill-opacity:1;fill-rule:nonzero;stroke:none"
                             id="path4530"
                             inkscape:connector-curvature="0" />
                        </g>
                      </g>
                    </g>
                  </g>
                </g>
              </g>
            </g>
          </g>
        </g>
      </g>
    </g>
  </g>
</svg>
