<?xml version="1.0" encoding="UTF-8" standalone="no"?>
<!-- Generator: Adobe Illustrator 24.0.3, SVG Export Plug-In . SVG Version: 6.00 Build 0)  -->

<svg
   xmlns:dc="http://purl.org/dc/elements/1.1/"
   xmlns:cc="http://creativecommons.org/ns#"
   xmlns:rdf="http://www.w3.org/1999/02/22-rdf-syntax-ns#"
   xmlns:svg="http://www.w3.org/2000/svg"
   xmlns="http://www.w3.org/2000/svg"
   xmlns:sodipodi="http://sodipodi.sourceforge.net/DTD/sodipodi-0.dtd"
   xmlns:inkscape="http://www.inkscape.org/namespaces/inkscape"
   version="1.1"
   id="Layer_1"
   x="0px"
   y="0px"
   viewBox="0 0 2048.84 2350.71"
   style="enable-background:new 0 0 2048.84 2350.71;"
   xml:space="preserve"
   sodipodi:docname="server.svg"
   inkscape:version="0.92.5 (2060ec1f9f, 2020-04-08)"><metadata
   id="metadata1106"><rdf:RDF><cc:Work
       rdf:about=""><dc:format>image/svg+xml</dc:format><dc:type
         rdf:resource="http://purl.org/dc/dcmitype/StillImage" /></cc:Work></rdf:RDF></metadata><defs
   id="defs1104" /><sodipodi:namedview
   pagecolor="#ffffff"
   bordercolor="#666666"
   borderopacity="1"
   objecttolerance="10"
   gridtolerance="10"
   guidetolerance="10"
   inkscape:pageopacity="0"
   inkscape:pageshadow="2"
   inkscape:window-width="1280"
   inkscape:window-height="772"
   id="namedview1102"
   showgrid="false"
   inkscape:zoom="0.23014324"
   inkscape:cx="966.23849"
   inkscape:cy="1342.6762"
   inkscape:window-x="0"
   inkscape:window-y="0"
   inkscape:window-maximized="1"
   inkscape:current-layer="Layer_1" />
<style
   type="text/css"
   id="style1033">
	.st0{fill:#927DB2;}
	.st1{fill:#675A7D;}
	.st2{fill:#E2D3E9;}
	.st3{fill:#7E659C;}
	.st4{fill:#FFFFFF;}
</style>

<circle
   id="background_1_"
   class="st1"
   cx="1156.7"
   cy="1290.71"
   r="878.66" />
<circle
   id="background"
   class="st2"
   cx="958.59"
   cy="1092.84"
   r="878.66" />
<g
   id="g1047">
	<path
   class="st3"
   d="M1403.07,552.68l-900.29,0.21c-28.23,0.01-51.11,22.9-51.11,51.13l0.02,99.35   c0.01,28.23,22.9,51.11,51.13,51.11l900.29-0.21c28.23-0.01,51.11-22.9,51.11-51.13l-0.02-99.36   C1454.2,575.55,1431.31,552.67,1403.07,552.68z"
   id="path1039" />
	<path
   class="st3"
   d="M1403.07,786.6l-900.29,0.21c-28.23,0.01-51.11,22.9-51.11,51.13l0.02,99.36   c0.01,28.23,22.9,51.11,51.13,51.11l900.29-0.21c28.23-0.01,51.11-22.9,51.11-51.13l-0.02-99.35   C1454.2,809.47,1431.31,786.59,1403.07,786.6z"
   id="path1041" />
	<path
   class="st3"
   d="M1403.07,1020.51l-900.29,0.21c-28.23,0.01-51.11,22.9-51.11,51.13l0.02,99.35   c0.01,28.23,22.9,51.11,51.13,51.11l900.29-0.21c28.23-0.01,51.11-22.9,51.11-51.13l-0.02-99.35   C1454.2,1043.39,1431.31,1020.51,1403.07,1020.51z"
   id="path1043" />
	<path
   class="st3"
   d="M1403.07,1254.52l-900.29,0.21c-28.23,0.01-51.11,22.9-51.11,51.13l0.02,99.35   c0.01,28.23,22.9,51.11,51.13,51.11l900.29-0.21c28.23-0.01,51.11-22.9,51.11-51.13l-0.02-99.36   C1454.2,1277.39,1431.31,1254.51,1403.07,1254.52z"
   id="path1045" />
</g>
<path
   class="st3"
   d="M926.9,1605.4l-0.79-48.18l24.05,12.57l0.36,21.71l31.56-0.5l24.45,13.09L926.9,1605.4z M988.35,1587.26v-30.71  l24.48,12.65v32.57L988.35,1587.26z M988.35,1646.16v-21.52l-31.8-0.02c0.03,0.14-24.63-13.71-24.63-13.71l80.92,0.39v48.19  L988.35,1646.16z M926.49,1646.16l0-31.49l23.84,14.17v29.97L926.49,1646.16z"
   id="path1049" />
<g
   id="g1091">
	<g
   id="g1059">
		<path
   class="st4"
   d="M974.36,682.06l-417.7,0.1c-13.81,0-25.11-11.29-25.11-25.1l0-6.75c0-13.81,11.29-25.11,25.1-25.11l417.7-0.1    c13.81,0,25.11,11.29,25.11,25.1l0,6.75C999.46,670.75,988.16,682.05,974.36,682.06z"
   id="path1051" />
		<circle
   class="st4"
   cx="1128.21"
   cy="653.54"
   r="28.48"
   id="circle1053" />
		<circle
   class="st4"
   cx="1237.05"
   cy="653.51"
   r="28.48"
   id="circle1055" />
		<circle
   class="st4"
   cx="1345.89"
   cy="653.49"
   r="28.48"
   id="circle1057" />
	</g>
	<g
   id="g1069">
		<path
   class="st4"
   d="M974.36,915.97l-417.7,0.1c-13.81,0-25.11-11.29-25.11-25.1l0-6.75c0-13.81,11.29-25.11,25.1-25.11l417.7-0.1    c13.81,0,25.11,11.29,25.11,25.1l0,6.75C999.46,904.67,988.16,915.97,974.36,915.97z"
   id="path1061" />
		<circle
   class="st4"
   cx="1128.21"
   cy="887.46"
   r="28.48"
   id="circle1063" />
		<circle
   class="st4"
   cx="1237.05"
   cy="887.43"
   r="28.48"
   id="circle1065" />
		<circle
   class="st4"
   cx="1345.89"
   cy="887.4"
   r="28.48"
   id="circle1067" />
	</g>
	<g
   id="g1079">
		<path
   class="st4"
   d="M974.36,1149.89l-417.7,0.1c-13.81,0-25.11-11.29-25.11-25.1l0-6.75c0-13.81,11.29-25.11,25.1-25.11    l417.7-0.1c13.81,0,25.11,11.29,25.11,25.1l0,6.75C999.46,1138.58,988.16,1149.88,974.36,1149.89z"
   id="path1071" />
		<circle
   class="st4"
   cx="1128.21"
   cy="1121.37"
   r="28.48"
   id="circle1073" />
		<circle
   class="st4"
   cx="1237.05"
   cy="1121.35"
   r="28.48"
   id="circle1075" />
		<circle
   class="st4"
   cx="1345.89"
   cy="1121.32"
   r="28.48"
   id="circle1077" />
	</g>
	<g
   id="g1089">
		<path
   class="st4"
   d="M974.36,1383.9l-417.7,0.1c-13.81,0-25.11-11.29-25.11-25.1l0-6.75c0-13.81,11.29-25.11,25.1-25.11l417.7-0.1    c13.81,0,25.11,11.29,25.11,25.1l0,6.75C999.46,1372.59,988.16,1383.89,974.36,1383.9z"
   id="path1081" />
		<circle
   class="st4"
   cx="1128.21"
   cy="1355.38"
   r="28.48"
   id="circle1083" />
		<circle
   class="st4"
   cx="1237.05"
   cy="1355.35"
   r="28.48"
   id="circle1085" />
		<circle
   class="st4"
   cx="1345.89"
   cy="1355.33"
   r="28.48"
   id="circle1087" />
	</g>
</g>
<g
   id="g1099">
	<path
   class="st3"
   d="M1005.54,1535.14v-34.29c0-18.68-15.28-33.96-33.96-33.96h0c-18.68,0-33.96,15.28-33.96,33.96v34.29   c10.41-4.52,21.89-7.03,33.96-7.03S995.13,1530.62,1005.54,1535.14z"
   id="path1093" />
	<path
   class="st3"
   d="M889.95,1588.31H393.1c-12.41,0-22.57,10.16-22.57,22.57v5.29c0,12.41,10.16,22.57,22.57,22.57h496.85   c-2.46-7.97-3.79-16.44-3.79-25.22S887.49,1596.28,889.95,1588.31z"
   id="path1095" />
	<path
   class="st3"
   d="M1512.81,1588.31h-459.6c2.46,7.97,3.79,16.44,3.79,25.22s-1.33,17.24-3.79,25.22h459.6   c12.41,0,22.57-10.16,22.57-22.57v-5.29C1535.38,1598.47,1525.23,1588.31,1512.81,1588.31z"
   id="path1097" />
</g>
</svg>