<?xml version="1.0" encoding="UTF-8" standalone="no"?>
<!-- Created with Inkscape (http://www.inkscape.org/) -->

<svg
   xmlns:dc="http://purl.org/dc/elements/1.1/"
   xmlns:cc="http://creativecommons.org/ns#"
   xmlns:rdf="http://www.w3.org/1999/02/22-rdf-syntax-ns#"
   xmlns:svg="http://www.w3.org/2000/svg"
   xmlns="http://www.w3.org/2000/svg"
   xmlns:sodipodi="http://sodipodi.sourceforge.net/DTD/sodipodi-0.dtd"
   xmlns:inkscape="http://www.inkscape.org/namespaces/inkscape"
   version="1.1"
   id="svg92"
   width="60"
   height="15"
   viewBox="0 0 60 15"
   sodipodi:docname="sign.svg"
   inkscape:version="0.92.5 (2060ec1f9f, 2020-04-08)">
  <metadata
     id="metadata98">
    <rdf:RDF>
      <cc:Work
         rdf:about="">
        <dc:format>image/svg+xml</dc:format>
        <dc:type
           rdf:resource="http://purl.org/dc/dcmitype/StillImage" />
        <dc:title></dc:title>
      </cc:Work>
    </rdf:RDF>
  </metadata>
  <defs
     id="defs96" />
  <sodipodi:namedview
     pagecolor="#ffffff"
     bordercolor="#666666"
     borderopacity="1"
     objecttolerance="10"
     gridtolerance="10"
     guidetolerance="10"
     inkscape:pageopacity="0"
     inkscape:pageshadow="2"
     inkscape:window-width="1342"
     inkscape:window-height="740"
     id="namedview94"
     showgrid="false"
     inkscape:zoom="11.313708"
     inkscape:cx="27.229234"
     inkscape:cy="11.014129"
     inkscape:window-x="24"
     inkscape:window-y="0"
     inkscape:window-maximized="1"
     inkscape:current-layer="svg92" />
  <path
     style="opacity:1;fill:none;fill-opacity:1;stroke:#441600;stroke-width:0.29650265;stroke-linecap:round;stroke-linejoin:round;stroke-miterlimit:4;stroke-dasharray:none;stroke-opacity:1"
     d="M 8.0542311,13.034013 C 8.4016551,12.670691 8.8686215,9.979976 6.799416,10.508717 4.7302103,11.037458 4.8226854,12.77915 6.065651,13.593079 8.8559381,15.42024 15.418712,6.130186 18.264852,2.11341 17.156736,4.883948 15.024009,9.013126 14.877744,10.812448 15.164119,10.104962 15.732067,9.66283 13.964658,8.494353 16.479189,7.918512 20.447939,4.639066 21.007106,2.120152 21.773313,1.230698 18.267819,3.791078 16.954747,9.07294 c 0.814013,1.264544 4.138073,-3.170766 5.829495,-6.899257 -1.495148,1.802792 -1.980598,2.506941 -4.307686,7.419819 0.760457,-0.809618 1.809958,-2.680981 2.44089,-2.013734 0.129689,0.137155 0.155399,1.918942 -2.135029,2.286461"
     id="path102"
     inkscape:connector-curvature="0"
     sodipodi:nodetypes="czscccccccsc" />
  <path
     style="opacity:1;fill:none;fill-opacity:1;stroke:#441600;stroke-width:0.29650265;stroke-linecap:round;stroke-linejoin:round;stroke-miterlimit:4;stroke-dasharray:none;stroke-opacity:1"
     d="m 20.674412,9.26234 c 0.84546,-0.13466 2.084581,-1.220167 1.667828,-1.57517 -0.477391,-0.406656 -1.727463,0.792175 -1.667828,1.57517 0.05964,0.782996 1.888078,0.106011 2.285541,-0.308857"
     id="path955"
     inkscape:connector-curvature="0"
     sodipodi:nodetypes="cszc" />
  <path
     style="opacity:1;fill:none;fill-opacity:1;stroke:#441600;stroke-width:0.29650265;stroke-linecap:round;stroke-linejoin:round;stroke-miterlimit:4;stroke-dasharray:none;stroke-opacity:1"
     d="m 23.114061,8.316768 c 0.978848,-1.601486 0.402251,-0.141757 0.180014,0.836375 0.223901,-0.642371 0.574751,-1.617734 0.866673,-1.553331 0.291922,0.0644 0.48293,-0.161601 0.48293,-0.161601"
     id="path965"
     inkscape:connector-curvature="0"
     sodipodi:nodetypes="cczc" />
  <path
     style="opacity:1;fill:none;fill-opacity:1;stroke:#441600;stroke-width:0.29650265;stroke-linecap:round;stroke-linejoin:round;stroke-miterlimit:4;stroke-dasharray:none;stroke-opacity:1"
     d="M 27.10547,3.512394 C 26.157527,5.278714 25.42078,7.195888 24.670368,9.103301 25.838306,6.47246 25.043192,7.05983 24.015184,6.952112 l 2.52246,-0.04368 c -1.885226,0.927859 -1.503912,2.434733 -0.545987,2.369583 0.593686,-0.04038 1.527232,-1.4501 0.931411,-1.875986 -0.173097,-0.123728 -0.418321,-0.157394 -0.643356,0.02275 -0.198511,0.158905 1.924412,-0.296793 2.366727,-0.280652"
     id="path969"
     inkscape:connector-curvature="0"
     sodipodi:nodetypes="ccccsssc" />
  <path
     style="opacity:1;fill:none;fill-opacity:1;stroke:#441600;stroke-width:0.29650265;stroke-linecap:round;stroke-linejoin:round;stroke-miterlimit:4;stroke-dasharray:none;stroke-opacity:1"
     d="M 30.064719,11.527483 C 32.467174,8.562327 34.910988,6.402106 37.097032,4.189418"
     id="path971"
     inkscape:connector-curvature="0"
     sodipodi:nodetypes="cc" />
  <path
     style="opacity:1;fill:none;fill-opacity:1;stroke:#441600;stroke-width:0.29650265;stroke-linecap:round;stroke-linejoin:round;stroke-miterlimit:4;stroke-dasharray:none;stroke-opacity:1"
     d="M 33.296963,9.627449 C 32.513788,8.748328 31.298909,6.891915 30.370473,7.334303 31.861807,8.025563 33.059456,5.913046 33.559037,5.958416 33.995564,5.998056 35.03892,8.24824 36.878638,7.771093 35.227294,7.422951 34.916667,8.69347 33.864789,9.714807"
     id="path973"
     inkscape:connector-curvature="0"
     sodipodi:nodetypes="ccscc" />
  <path
     style="opacity:1;fill:none;fill-opacity:1;stroke:#441600;stroke-width:0.29650265;stroke-linecap:round;stroke-linejoin:round;stroke-miterlimit:4;stroke-dasharray:none;stroke-opacity:1"
     d="M 38.563435,11.409084 C 37.840444,8.32894 33.210874,12.766038 35.058098,13.486186 37.501738,14.43885 46.054325,2.836793 45.166765,2.683688 44.266307,5.148481 42.878533,8.366189 41.47108,10.652196 42.119974,9.337664 41.766277,8.621745 41.26018,8.061546 44.701865,7.460152 47.292529,3.783475 47.764267,2.41851 47.983008,1.785589 43.961278,5.566398 43.869566,9.293226 44.563405,9.95395 45.416467,8.465163 46.216878,7.68717 c -0.933207,0.759252 -1.016559,1.63695 -0.490423,1.79137 0.94383,0.277013 2.475549,-2.150467 1.362617,-2.051227 -1.197626,0.106792 -0.08301,0.348174 0.468684,0.0633"
     id="path975"
     inkscape:connector-curvature="0"
     sodipodi:nodetypes="cscccsccssc" />
  <path
     style="opacity:1;fill:none;fill-opacity:1;stroke:#441600;stroke-width:0.29650265;stroke-linecap:round;stroke-linejoin:round;stroke-miterlimit:4;stroke-dasharray:none;stroke-opacity:1"
     d="M 48.111504,7.052273 C 48.579542,6.923989 48.691039,8.326448 47.957075,9.2606 48.265729,8.099575 49.104057,6.971017 49.779331,7.005944 50.590085,7.047884 48.186618,9.74819 49.50136,9.708442"
     id="path977"
     inkscape:connector-curvature="0"
     sodipodi:nodetypes="ccsc" />
  <path
     style="opacity:1;fill:none;fill-opacity:1;stroke:#441600;stroke-width:0.26858804;stroke-linecap:round;stroke-linejoin:round;stroke-miterlimit:4;stroke-dasharray:none;stroke-opacity:1"
     d="m 52.200756,7.288471 c -2.045831,0.174704 -0.499903,0.867936 -0.154431,1.140476 1.601512,1.199051 -1.783384,1.735701 -2.100227,1.013756 -0.199765,-0.455177 0.503297,-0.618564 1.065556,-0.760317"
     id="path979"
     inkscape:connector-curvature="0"
     sodipodi:nodetypes="ccsc" />
  <path
     style="opacity:1;fill:none;fill-opacity:1;stroke:#441600;stroke-width:0.29650265;stroke-linecap:round;stroke-linejoin:round;stroke-miterlimit:4;stroke-dasharray:none;stroke-opacity:1"
     d="m 53.240724,7.618814 c -1.149804,1.088047 -0.241022,1.794485 0.247086,1.775927 0.897651,-0.03413 2.121782,-2.300503 0.833913,-2.023013 -0.90924,0.195909 -0.756724,0.355186 -0.756724,0.355186"
     id="path981"
     inkscape:connector-curvature="0"
     sodipodi:nodetypes="cssc" />
</svg>
